<svg id="Layer_1" data-name="Layer 1" xmlns="http://www.w3.org/2000/svg" viewBox="0 0 607.04 140.59"><defs><style>.cls-1{fill:#db1f26;}.cls-2{fill:#fff;}</style></defs><path class="cls-1" d="M157.27,228.07l-40,137.54a1.39,1.39,0,0,0,1.34,1.83H327.31a1.69,1.69,0,0,0,1.6-1.22l40-137.54a1.39,1.39,0,0,0-1.34-1.83H158.88A1.71,1.71,0,0,0,157.27,228.07Z" transform="translate(-117.2 -226.85)"/><path class="cls-2" d="M368.63,322.51l15.29-51.18a1.24,1.24,0,0,1,1.16-.88h12a1,1,0,0,1,1,1.33l-11.65,39.08a1,1,0,0,0,1,1.33h14.69a1,1,0,0,1,1,1.33L400.19,323a1.25,1.25,0,0,1-1.16.88H369.59A1,1,0,0,1,368.63,322.51Z" transform="translate(-117.2 -226.85)"/><path class="cls-2" d="M407.66,322.51l11.69-39.17a1.22,1.22,0,0,1,1.15-.87h11.95a1,1,0,0,1,1,1.33L421.66,323a1.25,1.25,0,0,1-1.16.88H408.62A1,1,0,0,1,407.66,322.51Zm21-44a9.27,9.27,0,0,1-4.89-1.15c-1.26-.76-1.8-2.1-1.64-4a9,9,0,0,1,1.35-4.18,7.19,7.19,0,0,1,3.06-2.57,10.83,10.83,0,0,1,4.51-.88,9.31,9.31,0,0,1,4.77,1.15q2,1.16,1.72,4a8.37,8.37,0,0,1-2.49,5.53Q432.84,278.52,428.65,278.52Z" transform="translate(-117.2 -226.85)"/><path class="cls-2" d="M429.1,341.8a27.94,27.94,0,0,1-4.1-.31c-1-.14-1.84-.3-2.54-.46a1,1,0,0,1-.76-1.07l.77-8.83a1.22,1.22,0,0,1,1.43-1.08l.79.16a12.14,12.14,0,0,0,2.12.2A6.86,6.86,0,0,0,431,329.3a6.62,6.62,0,0,0,2.21-3.46l9.4-31.42a1,1,0,0,0-1-1.33h-3.32a1,1,0,0,1-1-1.34l1.6-5.09a1.23,1.23,0,0,1,.64-.74l6.23-3a1.27,1.27,0,0,0,.65-.75l.66-2.19a25.92,25.92,0,0,1,2.63-6,15.57,15.57,0,0,1,3.61-4.14,13.78,13.78,0,0,1,4.63-2.39,19.57,19.57,0,0,1,5.71-.77,26.52,26.52,0,0,1,5.62.58,21.15,21.15,0,0,1,3.58,1.09,1,1,0,0,1,.5,1.41l-3.52,7.6a1.18,1.18,0,0,1-1.46.65,11.6,11.6,0,0,0-1.26-.39,9.51,9.51,0,0,0-2.38-.32,3.78,3.78,0,0,0-2.24.68,3.67,3.67,0,0,0-1.35,1.95l-.39,1.25a1,1,0,0,0,.95,1.35h5a1,1,0,0,1,1,1.34L465,292.23a1.23,1.23,0,0,1-1.15.86H458a1.23,1.23,0,0,0-1.15.87l-10.29,34.15a24.21,24.21,0,0,1-3.37,7.05,15.51,15.51,0,0,1-5.63,4.87A18.41,18.41,0,0,1,429.1,341.8Z" transform="translate(-117.2 -226.85)"/><path class="cls-2" d="M476.32,324.57c-3.6,0-6.27-.78-8-2.32s-2.44-4.09-2.13-7.62a27.1,27.1,0,0,1,.57-3.43c.3-1.29.6-2.43.9-3.43l4-13.35a1,1,0,0,0-1-1.33h-2.9a1,1,0,0,1-1-1.33l1.52-5a1.24,1.24,0,0,1,.74-.79l7.31-2.86a1.24,1.24,0,0,0,.59-.47l5.18-7.88a1.23,1.23,0,0,1,1-.55h7.41a1,1,0,0,1,1,1.33l-1.7,5.62a1,1,0,0,0,1,1.34h7.78a1,1,0,0,1,1,1.33L497,292.22a1.22,1.22,0,0,1-1.15.87H487a1.24,1.24,0,0,0-1.15.87l-4,13.12c-.21.7-.41,1.41-.59,2.13a10,10,0,0,0-.33,1.7,2,2,0,0,0,.48,1.77,2.36,2.36,0,0,0,1.62.53,12.15,12.15,0,0,0,3.18-.49c.71-.2,1.42-.42,2.14-.67a1,1,0,0,1,1.37,1.05l-.73,8.32a1.23,1.23,0,0,1-.75,1,26.29,26.29,0,0,1-4.82,1.48A34.44,34.44,0,0,1,476.32,324.57Z" transform="translate(-117.2 -226.85)"/><path class="cls-2" d="M524,322.51l11.51-38.94a1,1,0,0,0-1-1.32h-8.86a1,1,0,0,1-1-1.34l2.89-9.58a1.23,1.23,0,0,1,1.15-.88h35.28a1,1,0,0,1,1,1.34l-2.95,9.59a1.24,1.24,0,0,1-1.15.87H551.1a1.23,1.23,0,0,0-1.16.88L538.17,323a1.24,1.24,0,0,1-1.16.88H525A1,1,0,0,1,524,322.51Z" transform="translate(-117.2 -226.85)"/><path class="cls-2" d="M557.51,322.51l11.69-39.17a1.22,1.22,0,0,1,1.16-.87h9.17a1,1,0,0,1,1,1.2l-1,5.7h.3a22.82,22.82,0,0,1,3.9-4.59,11.76,11.76,0,0,1,4.17-2.35,17.8,17.8,0,0,1,6.7-.6h0a1,1,0,0,1,.84,1.33l-3.58,11.66a1.21,1.21,0,0,1-1.44.83c-.26-.07-.55-.14-.85-.2a12.26,12.26,0,0,0-2.5-.24,9.35,9.35,0,0,0-3.13.53,8,8,0,0,0-2.78,1.72,12.43,12.43,0,0,0-2.4,3.21,27.15,27.15,0,0,0-2,5L571.51,323a1.24,1.24,0,0,1-1.16.88H558.47A1,1,0,0,1,557.51,322.51Z" transform="translate(-117.2 -226.85)"/><path class="cls-2" d="M603.72,324.57a11.09,11.09,0,0,1-5.73-1.5,9.23,9.23,0,0,1-3.86-4.95q-1.3-3.45-.79-9.33a36.6,36.6,0,0,1,1.29-6.64,43.87,43.87,0,0,1,2.79-7.21,33.53,33.53,0,0,1,4.21-6.6,20.42,20.42,0,0,1,5.58-4.8,13.61,13.61,0,0,1,6.9-1.8,10.29,10.29,0,0,1,4.08.73,8.63,8.63,0,0,1,2.93,2,11.69,11.69,0,0,1,2,3.09h.3l2-4.4a1.22,1.22,0,0,1,1.09-.71h9.2a1,1,0,0,1,1,1.33L625,323a1.25,1.25,0,0,1-1.16.88h-9.19a1,1,0,0,1-1-1.2l.56-3.3H614a17.63,17.63,0,0,1-2.68,2.71,11.63,11.63,0,0,1-3.29,1.84A12.3,12.3,0,0,1,603.72,324.57Zm6.79-11.36a4.35,4.35,0,0,0,3.09-1.48,14.47,14.47,0,0,0,2.65-3.81,24.13,24.13,0,0,0,1.85-5c.21-.75.39-1.51.53-2.28s.24-1.53.31-2.28a8.18,8.18,0,0,0-.42-3.82,2.16,2.16,0,0,0-2.12-1.44,3.88,3.88,0,0,0-2.32.86,9.94,9.94,0,0,0-2.19,2.34,18.74,18.74,0,0,0-1.89,3.39,28.72,28.72,0,0,0-1.41,4,25,25,0,0,0-.76,4.27,7.37,7.37,0,0,0,.45,3.87A2.3,2.3,0,0,0,610.51,313.21Z" transform="translate(-117.2 -226.85)"/><path class="cls-2" d="M652.75,324.57a16.39,16.39,0,0,1-7.55-1.72,11.33,11.33,0,0,1-5.13-5.44q-1.77-3.72-1.25-9.71a34.67,34.67,0,0,1,1.73-8.29,30.61,30.61,0,0,1,3.53-7.16,25.12,25.12,0,0,1,5.11-5.6,22.56,22.56,0,0,1,6.47-3.64,22.14,22.14,0,0,1,7.56-1.27,30.71,30.71,0,0,1,7,.73,28.55,28.55,0,0,1,5.17,1.73,1,1,0,0,1,.46,1.46l-4.37,8.46a1.18,1.18,0,0,1-1.48.59c-.93-.39-1.91-.76-3-1.09a13.49,13.49,0,0,0-4.12-.67,6.2,6.2,0,0,0-3.93,1.36,12.26,12.26,0,0,0-3,3.53,23.07,23.07,0,0,0-2.9,8.94,10.58,10.58,0,0,0,.22,3.82,3.4,3.4,0,0,0,1.39,2,4.5,4.5,0,0,0,2.4.6,16.31,16.31,0,0,0,5.16-.84,36.93,36.93,0,0,0,3.8-1.51,1,1,0,0,1,1.49,1l-.77,8.75a1.2,1.2,0,0,1-.68,1,31,31,0,0,1-5.72,2.12A30.57,30.57,0,0,1,652.75,324.57Z" transform="translate(-117.2 -226.85)"/><path class="cls-2" d="M673.26,322.51l16.18-54.61a1.24,1.24,0,0,1,1.16-.88h11.87a1,1,0,0,1,1,1.33l-6.8,22.88c-.28.9-.6,1.89-1,3s-.76,2.07-1.12,3-.68,1.69-.95,2.24h.33l15.4-16.58a1.2,1.2,0,0,1,.88-.39h13a1,1,0,0,1,.63,1.86l-17.05,16.3a1.14,1.14,0,0,0-.32,1.21l7.23,20.45a1.2,1.2,0,0,1-1.14,1.55H699.06a1,1,0,0,1-1-.74l-3.31-12.34a1,1,0,0,0-1.5-.61l-2.19,1.1a1.27,1.27,0,0,0-.64.76L687.25,323a1.23,1.23,0,0,1-1.16.89H674.22A1,1,0,0,1,673.26,322.51Z" transform="translate(-117.2 -226.85)"/><path class="cls-2" d="M149.51,349.11l31.15-104.55a1.71,1.71,0,0,1,1.6-1.22h11.16a1.4,1.4,0,0,1,1.33,1.84L163.63,349.73A1.71,1.71,0,0,1,162,351H150.84A1.4,1.4,0,0,1,149.51,349.11Z" transform="translate(-117.2 -226.85)"/><path class="cls-2" d="M178.12,349.11l20.44-68.74a1.71,1.71,0,0,1,1.6-1.22h11.16a1.39,1.39,0,0,1,1.33,1.84l-20.41,68.74a1.71,1.71,0,0,1-1.6,1.22H179.45A1.39,1.39,0,0,1,178.12,349.11Z" transform="translate(-117.2 -226.85)"/><path class="cls-2" d="M206.73,349.11l9.65-32.52a1.7,1.7,0,0,1,1.6-1.21h11.16a1.39,1.39,0,0,1,1.34,1.84l-9.64,32.51a1.7,1.7,0,0,1-1.6,1.22H208.06A1.39,1.39,0,0,1,206.73,349.11Z" transform="translate(-117.2 -226.85)"/><path class="cls-2" d="M307,349.71l29.69-104.55a1.39,1.39,0,0,0-1.34-1.82H324.2a1.7,1.7,0,0,0-1.6,1.24L292.88,349.12a1.39,1.39,0,0,0,1.34,1.83h11.19A1.72,1.72,0,0,0,307,349.71Z" transform="translate(-117.2 -226.85)"/><path class="cls-2" d="M278.41,349.71,298,281a1.39,1.39,0,0,0-1.34-1.82H285.46a1.7,1.7,0,0,0-1.6,1.23l-19.59,68.74a1.4,1.4,0,0,0,1.34,1.83H276.8A1.71,1.71,0,0,0,278.41,349.71Z" transform="translate(-117.2 -226.85)"/><path class="cls-2" d="M249.8,349.71l9.26-32.51a1.38,1.38,0,0,0-1.33-1.82H246.56a1.69,1.69,0,0,0-1.6,1.23l-9.29,32.51A1.39,1.39,0,0,0,237,351H248.2A1.7,1.7,0,0,0,249.8,349.71Z" transform="translate(-117.2 -226.85)"/></svg>