<svg width="33" height="24" viewBox="0 0 33 24" fill="none" xmlns="http://www.w3.org/2000/svg">
<path d="M16.4973 24C6.1604 24 0.408697 13.1548 0.168604 12.6922C0.0578262 12.4787 0 12.2417 0 12.0012C0 11.7607 0.0578262 11.5237 0.168604 11.3102C0.277524 11.1005 2.89513 6.13001 7.72394 2.84599C7.88671 2.73169 8.07057 2.6509 8.26485 2.6083C8.45913 2.56571 8.65993 2.56217 8.85559 2.59789C9.05125 2.63361 9.23785 2.70787 9.40454 2.81637C9.57124 2.92486 9.71469 3.06541 9.82657 3.22985C9.93845 3.39429 10.0165 3.57934 10.0562 3.77422C10.0959 3.96911 10.0965 4.16995 10.0579 4.36505C10.0193 4.56016 9.94226 4.74564 9.83131 4.91071C9.72036 5.07578 9.5777 5.21714 9.41162 5.32657C6.21428 7.5003 4.07452 10.625 3.23243 12.0023C4.59687 14.2194 9.35072 21.0006 16.4973 21.0006C18.924 21.0006 21.2992 20.2241 23.5608 18.6898C23.8902 18.4695 24.2935 18.3885 24.6825 18.4644C25.0715 18.5404 25.4146 18.7673 25.6369 19.0954C25.8592 19.4235 25.9426 19.8263 25.869 20.2157C25.7953 20.6052 25.5705 20.9497 25.2437 21.1739C22.4786 23.049 19.5354 24 16.4973 24ZM28.495 17.7564C28.2073 17.7561 27.9258 17.6732 27.684 17.5175C27.4421 17.3617 27.2502 17.1397 27.131 16.8779C27.0117 16.6162 26.9703 16.3256 27.0115 16.041C27.0528 15.7563 27.175 15.4895 27.3636 15.2723C28.2524 14.2505 29.0551 13.1567 29.7634 12.0023C28.4001 9.79231 23.6451 2.99942 16.4973 2.99942C16.0543 2.9991 15.6116 3.02452 15.1715 3.07555C14.976 3.09862 14.7778 3.08294 14.5883 3.02942C14.3988 2.9759 14.2217 2.88557 14.0671 2.7636C13.9125 2.64164 13.7834 2.49041 13.6873 2.31857C13.5911 2.14672 13.5298 1.95762 13.5067 1.76206C13.4836 1.5665 13.4993 1.36831 13.5528 1.17881C13.6063 0.989305 13.6967 0.812201 13.8186 0.657606C13.9406 0.50301 14.0918 0.373953 14.2637 0.277801C14.4355 0.181649 14.6246 0.120286 14.8202 0.0972156C15.3757 0.0319231 15.9345 -0.000536396 16.4938 6.70313e-06C26.8354 0.00352027 32.5859 10.8464 32.826 11.3149C32.9368 11.5283 32.9946 11.7653 32.9946 12.0059C32.9946 12.2464 32.9368 12.4834 32.826 12.6969C31.9274 14.3229 30.8549 15.8465 29.6275 17.2411C29.4867 17.4031 29.3127 17.533 29.1173 17.6219C28.9219 17.7108 28.7096 17.7567 28.495 17.7564Z" fill="black"/>
<path d="M16.4974 17.9988C15.3131 17.9989 14.1553 17.6484 13.1699 16.9916C12.1844 16.3348 11.4154 15.401 10.9598 14.3079C10.5042 13.2148 10.3823 12.0113 10.6095 10.849C10.8367 9.68671 11.4029 8.61769 12.2366 7.77664C12.3724 7.62561 12.5374 7.50371 12.7217 7.41833C12.9059 7.33295 13.1056 7.28587 13.3086 7.27994C13.5116 7.274 13.7137 7.30934 13.9026 7.38381C14.0915 7.45828 14.2634 7.57033 14.4077 7.71317C14.5521 7.85601 14.6659 8.02667 14.7423 8.21481C14.8188 8.40294 14.8563 8.60464 14.8525 8.80768C14.8486 9.01073 14.8037 9.21088 14.7202 9.39602C14.6368 9.58117 14.5166 9.74744 14.367 9.88478C13.7893 10.4326 13.4528 11.1874 13.4316 11.9833C13.4104 12.7791 13.7062 13.5508 14.254 14.1286C14.8018 14.7063 15.5566 15.0428 16.3525 15.064C17.1484 15.0852 17.9201 14.7894 18.4978 14.2416C18.641 14.0944 18.8129 13.9781 19.0029 13.9001C19.1928 13.822 19.3968 13.7838 19.6022 13.7879C19.8075 13.792 20.0098 13.8382 20.1965 13.9236C20.3833 14.0091 20.5505 14.1321 20.6877 14.2848C20.825 14.4376 20.9294 14.617 20.9944 14.8118C21.0595 15.0066 21.0839 15.2126 21.066 15.4172C21.0481 15.6218 20.9884 15.8206 20.8905 16.0011C20.7926 16.1817 20.6587 16.3402 20.497 16.4669C19.3983 17.4532 17.9739 17.9988 16.4974 17.9988Z" fill="black"/>
</svg>
