<svg width="35" height="34" viewBox="0 0 35 34" fill="none" xmlns="http://www.w3.org/2000/svg">
<path d="M32.4813 34C32.278 34.0003 32.0767 33.9605 31.8889 33.8827C31.7011 33.805 31.5305 33.6909 31.387 33.547L0.452561 2.61264C0.174782 2.32009 0.0222496 1.93062 0.0274736 1.52723C0.0326977 1.12384 0.195265 0.738445 0.480527 0.453183C0.765789 0.167921 1.15118 0.00535399 1.55457 0.000129895C1.95796 -0.0050942 2.34743 0.147438 2.63999 0.425217L33.5744 31.3596C33.79 31.5756 33.937 31.8506 33.9967 32.1499C34.0564 32.4493 34.0263 32.7596 33.9101 33.0418C33.7939 33.324 33.5968 33.5656 33.3437 33.7361C33.0905 33.9066 32.7925 33.9984 32.4873 34H32.4813Z" fill="black"/>
<path d="M17.0138 29.3608C6.35327 29.3608 0.421493 18.176 0.173882 17.6989C0.0596367 17.4787 0 17.2343 0 16.9863C0 16.7382 0.0596367 16.4938 0.173882 16.2737C0.286213 16.0574 2.98577 10.9313 7.96576 7.54447C8.13362 7.42659 8.32325 7.34327 8.52361 7.29934C8.72397 7.25541 8.93106 7.25176 9.13284 7.2886C9.33462 7.32544 9.52707 7.40203 9.69898 7.51392C9.87089 7.62581 10.0188 7.77076 10.1342 7.94035C10.2496 8.10994 10.3301 8.30078 10.3711 8.50176C10.412 8.70275 10.4126 8.90987 10.3728 9.11109C10.333 9.3123 10.2535 9.50359 10.1391 9.67383C10.0247 9.84407 9.87756 9.98986 9.70628 10.1027C6.40884 12.3445 4.20208 15.5671 3.33363 16.9875C4.74079 19.274 9.64347 26.2675 17.0138 26.2675C19.5165 26.2675 21.966 25.4666 24.2984 23.8844C24.6382 23.6571 25.0541 23.5735 25.4552 23.6519C25.8564 23.7303 26.2103 23.9642 26.4395 24.3026C26.6688 24.641 26.7549 25.0564 26.6789 25.458C26.6029 25.8597 26.3711 26.2149 26.0341 26.4462C23.1823 28.38 20.147 29.3608 17.0138 29.3608ZM29.3871 22.9217C29.0904 22.9214 28.8001 22.8359 28.5507 22.6753C28.3013 22.5146 28.1033 22.2857 27.9804 22.0157C27.8574 21.7458 27.8147 21.4461 27.8572 21.1526C27.8997 20.859 28.0258 20.5838 28.2203 20.3598C29.137 19.306 29.9648 18.178 30.6952 16.9875C29.2893 14.7083 24.3854 7.7027 17.0138 7.7027C16.5569 7.70238 16.1004 7.72859 15.6465 7.78121C15.4448 7.80501 15.2404 7.78884 15.045 7.73364C14.8496 7.67844 14.6669 7.58529 14.5075 7.4595C14.3481 7.33372 14.215 7.17776 14.1158 7.00053C14.0166 6.82331 13.9533 6.62828 13.9296 6.4266C13.9058 6.22492 13.9219 6.02052 13.9771 5.82509C14.0323 5.62965 14.1255 5.447 14.2513 5.28757C14.377 5.12813 14.533 4.99504 14.7102 4.89587C14.8875 4.79671 15.0825 4.73343 15.2842 4.70963C15.857 4.6423 16.4334 4.60882 17.0102 4.60938C27.6756 4.61301 33.6061 15.7953 33.8537 16.2785C33.968 16.4987 34.0276 16.7431 34.0276 16.9911C34.0276 17.2392 33.968 17.4836 33.8537 17.7038C32.927 19.3807 31.821 20.952 30.5551 22.3902C30.4099 22.5573 30.2304 22.6913 30.0289 22.783C29.8274 22.8747 29.6085 22.922 29.3871 22.9217Z" fill="black"/>
<path d="M17.0134 23.1723C15.792 23.1724 14.598 22.811 13.5817 22.1336C12.5653 21.4562 11.7723 20.4932 11.3024 19.3659C10.8325 18.2385 10.7068 16.9973 10.9411 15.7986C11.1754 14.6 11.7593 13.4975 12.6192 12.6301C12.7592 12.4743 12.9294 12.3486 13.1194 12.2606C13.3094 12.1725 13.5154 12.124 13.7247 12.1178C13.934 12.1117 14.1425 12.1482 14.3373 12.225C14.5321 12.3018 14.7094 12.4173 14.8582 12.5646C15.0071 12.712 15.1245 12.888 15.2034 13.082C15.2822 13.276 15.3208 13.484 15.3169 13.6934C15.313 13.9028 15.2666 14.1092 15.1805 14.3002C15.0945 14.4911 14.9706 14.6626 14.8163 14.8042C14.2204 15.3692 13.8734 16.1477 13.8516 16.9684C13.8297 17.7892 14.1348 18.5851 14.6997 19.1809C15.2647 19.7767 16.0431 20.1238 16.8639 20.1456C17.6847 20.1675 18.4806 19.8624 19.0764 19.2975C19.2241 19.1456 19.4013 19.0257 19.5973 18.9452C19.7932 18.8648 20.0035 18.8254 20.2153 18.8296C20.4271 18.8337 20.6357 18.8814 20.8283 18.9695C21.0209 19.0577 21.1933 19.1845 21.3349 19.3421C21.4764 19.4996 21.5841 19.6846 21.6512 19.8855C21.7183 20.0864 21.7434 20.2989 21.725 20.5099C21.7065 20.7209 21.6449 20.9259 21.544 21.1121C21.4431 21.2983 21.3049 21.4618 21.1382 21.5924C20.0051 22.6096 18.5361 23.1723 17.0134 23.1723Z" fill="black"/>
</svg>
