<svg width="20" height="24" viewBox="0 0 20 24" fill="none" xmlns="http://www.w3.org/2000/svg">
<path d="M10.8345 2.06905C12.4286 0.0100683 14.645 0 14.645 0C14.645 0 14.9746 1.93565 13.3908 3.80081C11.7001 5.78932 9.77728 5.46629 9.77728 5.46629C9.77728 5.46629 9.41686 3.90066 10.8345 2.06905Z" fill="black"/>
<path d="M9.97378 6.87567C10.787 6.87567 12.2962 5.75977 14.2604 5.75977C17.6421 5.75977 18.9723 8.16188 18.9723 8.16188C18.9723 8.16188 16.3706 9.48962 16.3706 12.7111C16.3706 16.346 19.6114 17.5984 19.6114 17.5984C19.6114 17.5984 17.3459 23.9642 14.2859 23.9642C12.8802 23.9642 11.7877 23.0186 10.3065 23.0186C8.7973 23.0186 7.29996 23.9998 6.32465 23.9998C3.5303 23.9998 0 17.9618 0 13.1076C0 8.33304 2.98789 5.82755 5.79074 5.82755C7.61318 5.8267 9.02649 6.87567 9.97378 6.87567Z" fill="black"/>
</svg>
