<svg width="38" height="27" viewBox="0 0 38 27" fill="none" xmlns="http://www.w3.org/2000/svg">
<path d="M0 4.86944H1.64234C1.64234 4.43909 1.64234 4.02546 1.64234 3.61335C1.6334 3.3681 1.64356 3.12253 1.67276 2.87886C1.78833 2.19455 2.32209 1.79461 3.01704 1.84327C3.32036 1.87068 3.60236 2.01085 3.80733 2.2361C4.0123 2.46135 4.12534 2.75528 4.1241 3.05982C4.13779 3.64833 4.1241 4.23684 4.1241 4.84663H4.78864V4.46494C4.78864 3.41871 4.78864 2.37247 4.78864 1.32624C4.78864 0.543087 5.30112 0.000201506 6.01432 0.000201506C6.72752 0.000201506 7.23087 0.540045 7.24151 1.32776C7.24151 2.36183 7.24151 3.3959 7.24151 4.42996V4.84663H8.1965V2.44851H10.6707V4.84359H27.1154V2.45003H29.5758V4.84207H30.5536V4.44365C30.5536 3.39742 30.5536 2.35118 30.5536 1.30495C30.5536 0.52788 31.0859 -0.011964 31.8021 0.000201506C32.5184 0.012367 33.0019 0.546128 33.0065 1.31103C33.0065 2.47892 33.0065 3.64681 33.0065 4.84055H33.6817C33.6817 4.28702 33.6817 3.73653 33.6817 3.18756C33.6817 2.37552 34.182 1.83871 34.9226 1.83871C35.6632 1.83871 36.1574 2.38008 36.1665 3.1906C36.1665 3.73197 36.1665 4.27181 36.1665 4.84967H37.7876V6.30345H36.1665C36.1665 6.91172 36.1787 7.47438 36.1665 8.04007C36.1452 8.8871 35.508 9.4315 34.7082 9.30377C34.4203 9.25713 34.1588 9.10864 33.9712 8.88535C33.7836 8.66205 33.6825 8.37881 33.6863 8.08722C33.6863 7.78308 33.6863 7.49567 33.6863 7.20065C33.6863 6.90564 33.6863 6.63648 33.6863 6.32626H33.0202V7.2919C33.0202 8.17846 33.0202 9.06502 33.0202 9.95006C33.0228 10.2741 32.8966 10.5859 32.6693 10.8169C32.442 11.0479 32.1323 11.1792 31.8082 11.1818C31.4841 11.1844 31.1723 11.0582 30.9413 10.8309C30.7103 10.6036 30.5791 10.2939 30.5765 9.96983C30.5567 8.90534 30.5689 7.8287 30.5673 6.75813V6.32626H29.6199V13.1009C30.1202 13.1009 30.6084 13.0812 31.0935 13.1009C31.7231 13.1344 32.0865 13.6392 31.9025 14.1821C31.7854 14.5228 31.4782 14.7265 31.0296 14.7372C30.581 14.7478 30.1172 14.7372 29.6321 14.7372V24.5426C31.0007 24.7418 31.1817 24.9532 31.1817 26.3811V26.9894H25.5612C25.5396 26.4998 25.5432 26.0095 25.5719 25.5204C25.6251 25.017 26.1467 24.608 26.6622 24.5851C26.796 24.5851 26.9298 24.5851 27.0926 24.5851V6.32322H10.7193V24.5715C10.7862 24.5715 10.8562 24.5912 10.9261 24.5928C11.8127 24.611 12.2628 25.0581 12.2704 25.9355C12.2704 26.2792 12.2704 26.6244 12.2704 27H6.67277C6.67277 26.4967 6.61955 25.9796 6.68798 25.4793C6.75641 24.979 7.27649 24.6186 7.78288 24.6004C7.91518 24.6004 8.049 24.6004 8.19954 24.6004V14.7448C7.72813 14.7448 7.27649 14.7448 6.83093 14.7448C6.44923 14.7448 6.12533 14.6247 5.95197 14.2536C5.89535 14.1398 5.86752 14.0139 5.8709 13.8868C5.87429 13.7597 5.90879 13.6354 5.97138 13.5248C6.03397 13.4142 6.12275 13.3206 6.22992 13.2523C6.33709 13.1839 6.45939 13.1429 6.5861 13.1329C7.10921 13.0857 7.63841 13.1237 8.1965 13.1237V6.31866H7.26736C7.26736 6.45856 7.25064 6.58934 7.25064 6.7186C7.25064 7.80133 7.25064 8.88405 7.24151 9.96678C7.2383 10.2525 7.1331 10.5277 6.94488 10.7426C6.75667 10.9576 6.49783 11.0983 6.21505 11.1392C5.9269 11.1871 5.63115 11.1298 5.38182 10.9776C5.13248 10.8254 4.94623 10.5886 4.85707 10.3105C4.8092 10.1331 4.78868 9.94956 4.79625 9.76605C4.79625 8.75632 4.79625 7.7481 4.79625 6.73837V6.32018H4.12714C4.12714 6.91324 4.13779 7.50023 4.12714 8.08569C4.12958 8.27147 4.08991 8.45539 4.01111 8.62364C3.9323 8.79189 3.81641 8.94011 3.67214 9.05717C3.52786 9.17424 3.35894 9.2571 3.17806 9.29954C2.99718 9.34199 2.80904 9.34291 2.62775 9.30224C2.05445 9.19275 1.65907 8.69397 1.6469 8.04464C1.63474 7.48046 1.6469 6.91476 1.6469 6.27456H0V4.86944Z" fill="#262626"/>
<path d="M23.6941 17.4013H14.1138C14.1138 16.8386 14.0606 16.2821 14.1275 15.7422C14.1944 15.2024 14.7632 14.772 15.3228 14.7705C17.7072 14.7614 20.0927 14.7614 22.4791 14.7705C23.0387 14.7705 23.6075 15.2009 23.6744 15.7407C23.7413 16.2806 23.6941 16.8371 23.6941 17.4013Z" fill="#262626"/>
<path d="M17.6016 18.0996H20.2141V24.9016H17.6016V18.0996Z" fill="#262626"/>
<path d="M15.5977 26.9904V25.5898H22.2126V26.9904H15.5977Z" fill="#262626"/>
</svg>
