<svg id="Layer_1" data-name="Layer 1" xmlns="http://www.w3.org/2000/svg" viewBox="0 0 208.21 208.2"><defs><style>.cls-1{fill:#262626;}.cls-2{fill:#696969;}.cls-3{fill:none;stroke:#ef4136;stroke-linecap:round;stroke-linejoin:round;stroke-width:30px;}</style></defs><path class="cls-1" d="M141.73,67.64a74.09,74.09,0,1,1-74.09,74.09,74.17,74.17,0,0,1,74.09-74.09m0-30A104.09,104.09,0,1,0,245.82,141.73,104.1,104.1,0,0,0,141.73,37.64Z" transform="translate(-37.63 -37.64)"/><path class="cls-2" d="M141.56,245.84A104.1,104.1,0,0,1,124.22,39.13a15,15,0,0,1,5.05,29.57,74.05,74.05,0,1,0,85.5,60.57,15,15,0,1,1,29.57-5.05,104.21,104.21,0,0,1-85.09,120.12A105.89,105.89,0,0,1,141.56,245.84Z" transform="translate(-37.63 -37.64)"/><path class="cls-3" d="M141.73,52.64" transform="translate(-37.63 -37.64)"/></svg>