<svg width="14" height="8" viewBox="0 0 14 8" fill="none" xmlns="http://www.w3.org/2000/svg">
<path d="M0.000213274 4.01229C0.000213251 3.74707 0.105569 3.49272 0.293106 3.30518C0.480642 3.11765 0.734996 3.01229 1.00021 3.01229L10.5862 3.01229L9.29321 1.71929C9.11106 1.53069 9.01026 1.27809 9.01254 1.01589C9.01482 0.753691 9.11999 0.502879 9.30539 0.31747C9.4908 0.132062 9.74162 0.0268935 10.0038 0.0246152C10.266 0.0223368 10.5186 0.123131 10.7072 0.305289L13.7072 3.30529C13.8947 3.49282 14 3.74712 14 4.01229C14 4.27745 13.8947 4.53176 13.7072 4.71929L10.7072 7.71929C10.5186 7.90145 10.266 8.00224 10.0038 7.99996C9.74162 7.99768 9.4908 7.89252 9.3054 7.70711C9.11999 7.5217 9.01482 7.27089 9.01254 7.00869C9.01026 6.74649 9.11106 6.49389 9.29321 6.30529L10.5862 5.01229L1.00021 5.01229C0.734997 5.01229 0.480642 4.90693 0.293106 4.7194C0.10557 4.53186 0.000213298 4.27751 0.000213274 4.01229Z" fill="black"/>
</svg>
