<svg id="Layer_1" data-name="Layer 1" xmlns="http://www.w3.org/2000/svg" viewBox="0 0 282.03 282.2"><defs><style>.cls-1{fill:#fff;}</style></defs><path class="cls-1" d="M198.15,221.51h9.4c0-4.69-.05-9.36,0-14a18.81,18.81,0,0,1,16.91-18.67,18.61,18.61,0,0,1,19.15,11.67c.75,1.91,1.67,2.49,3.61,2.39a22.25,22.25,0,0,1,5.82.41,13.86,13.86,0,0,1,10.88,13.26c.06,1.55,0,3.12,0,5.1,1.77,0,3.39,0,5,0a14.09,14.09,0,0,1-.06,28.18c-1.54,0-3.09,0-4.94,0,0,1.69,0,3.13,0,4.57a14.13,14.13,0,0,1-14.15,14.24,20.45,20.45,0,0,1-2.93,0c-1.73-.2-2.49.49-3.15,2.16A18.71,18.71,0,0,1,207.56,264c-.06-4.58,0-9.17,0-13.94h-9.41c0,3.09,0,6.1,0,9.11-.19,13.24-10.3,23.57-23.49,23.59q-75.18.11-150.37,0A23.27,23.27,0,0,1,.76,259.22Q.67,151.08.76,43a23.33,23.33,0,0,1,23.55-23.5c11.55-.09,23.1,0,34.65,0H62.2c2.39-8.93,7.61-15.1,16.43-17.74a27.55,27.55,0,0,1,7.51-1c9.79-.11,19.58,0,29.37,0,13.85,0,21.38,5.4,25.9,18.81h13.64c6.16,0,12.33,0,18.5,0,14.5,0,24.58,10.07,24.59,24.56q0,86.69,0,173.36Zm-112.81,0c0-1.72,0-3.27,0-4.82A14.07,14.07,0,0,1,97.28,203c1.83-.29,3.74,0,5.56-.26a3.61,3.61,0,0,0,2.44-1.7c3.86-8.85,12.19-13.72,20.88-12,9.46,1.84,15.52,9.3,15.58,19.24,0,4.37,0,8.75,0,13.17h28.2V57c0-8.95-.51-9.41-9.45-9.4A3.82,3.82,0,0,0,157,49.54a18.31,18.31,0,0,1-15.52,8.06q-42,.07-84,0c-5.68,0-10.79-2-14.15-6.54-2.2-3-4.52-3.63-7.84-3.48-5,.24-6.5,1.51-6.5,6.49V248c0,5,1.46,6.51,6.41,6.52h47c1,0,1.89-.07,2.77-.11V250c-12.61-.8-18.43-5.23-18.57-14C66.4,227,72.16,222.48,85.34,221.46Zm20.88,51.91c-.23-4.26-2.51-5.08-5.92-4.75s-6.67-.95-9.59-3A8.33,8.33,0,0,0,86.32,264c-16.84-.11-33.68-.07-50.51-.07-10.82,0-16.28-5.44-16.28-16.22V75.58q0-10.87,0-21.75C19.54,44,25.22,38.28,35,38.25h3l2.61-9.41H25.86c-10,0-15.73,5.67-15.73,15.59v213.3c0,10,5.69,15.63,15.68,15.64h80.41ZM99.4,48.22h15.86c8.71,0,17.43.07,26.14,0a9.66,9.66,0,0,0,.24-19.32c-1.27-.05-2.54,0-3.81,0-3.57-.08-5.2-1.6-5.5-5.09-.73-8.46-6.41-13.69-15-13.71Q102,10,86.54,10c-9,0-14.47,5-15.31,13.94-.3,3.15-2,4.77-5.12,4.85-2.94.08-5.88,0-8.81,0a9.66,9.66,0,0,0-9,6.4C46,41.72,50.73,48.17,58,48.2,71.8,48.26,85.6,48.22,99.4,48.22Zm61.56-10h1.58c11.86.15,16.8,5.2,16.8,17.16q0,81.21,0,162.42v3.66h9.4V123.61q0-39.94,0-79.89c0-7.64-4.59-13.8-11.76-14.56-6.14-.64-12.41-.13-18.64-.13C159.2,32,160,34.91,161,38.25ZM113.54,235.79q0,13.52,0,27c0,6.24,3.83,10.52,9.37,10.54s9.42-4.26,9.42-10.48q0-27.18,0-54.36c0-6.17-4-10.45-9.52-10.38s-9.25,4.27-9.27,10.32C113.52,217.57,113.54,226.68,113.54,235.79Zm122.21.05c0-9.11,0-18.22,0-27.33,0-6.16-4-10.45-9.52-10.37S217,202.42,217,208.47q0,27.18,0,54.36c0,6.24,3.84,10.52,9.38,10.53s9.4-4.27,9.42-10.49Q235.77,249.36,235.75,235.84Zm-93.88,4.4h65.44v-9H141.87Zm-2.26,33.1c12.06,0,24,.12,35.89,0a13.11,13.11,0,0,0,12.61-10.41c.81-4.14.6-8.48.86-12.88h-9.44c-1.65,9.76-6.63,14-16.41,14H142.2Zm-35.67-14.09v-47c-1.65,0-3.11-.08-4.56,0-2.77.19-4.59,1.9-4.6,4.71q-.11,18.77,0,37.54c0,2.79,1.86,4.52,4.62,4.71C100.85,259.33,102.31,259.25,103.94,259.25Zm141.31,0c1.65,0,3,.06,4.36,0,3.09-.15,4.9-1.89,4.91-5q.09-18.48,0-37c0-3.13-1.83-4.86-4.92-5-1.42-.06-2.85,0-4.35,0Zm-75.36-9.19h-28v4.46c8,0,15.94.1,23.85-.07C168.1,254.4,169.53,252.72,169.89,250.06Zm-84.55-9.81v-9c-6.67-.51-9.39.87-9.38,4.54S78.73,240.82,85.34,240.25Zm178.74.13c3.22-.08,6.71,1.13,8.5-2.38a5.81,5.81,0,0,0-.21-4.84c-1.92-3.17-5.25-1.95-8.29-2Z" transform="translate(-0.71 -0.61)"/><path class="cls-1" d="M120.88,85.27c11.17,0,22.33,0,33.49,0,1.41,0,3.31.12,4.09,1a7.22,7.22,0,0,1,1.78,4.82c-.18,2.22-2.08,3.48-4.41,3.53-3.91.06-7.83,0-11.75,0q-28.05,0-56.1,0c-.79,0-1.57,0-2.35,0-3-.15-5-2-5-4.69s2-4.64,5-4.67c7.15-.07,14.3,0,21.45,0Z" transform="translate(-0.71 -0.61)"/><path class="cls-1" d="M120.59,122.89q-17.19,0-34.37,0c-3.22,0-5.19-1.52-5.53-4.1-.39-2.94,1.81-5.24,5.23-5.28,5.38-.06,10.77,0,16.16,0,17.42,0,34.85,0,52.28,0,1.49,0,3.49.23,4.31,1.17a6.8,6.8,0,0,1,1.47,4.9c-.36,2.38-2.47,3.3-4.89,3.29q-12,0-24.08,0Z" transform="translate(-0.71 -0.61)"/><path class="cls-1" d="M120.39,151.1c-11.26,0-22.52.06-33.78-.06a6.84,6.84,0,0,1-4.48-1.49A5.16,5.16,0,0,1,81,145.12c.5-1.38,2.26-2.4,3.65-3.29.64-.4,1.72-.13,2.6-.13H154c.58,0,1.17,0,1.76,0,2.81.2,4.72,2,4.78,4.59a4.64,4.64,0,0,1-4.88,4.77c-5.48.09-11,0-16.45,0Q129.78,151.12,120.39,151.1Z" transform="translate(-0.71 -0.61)"/><path class="cls-1" d="M120.29,179.32q-17,0-34.07,0c-3.22,0-5.19-1.53-5.53-4.11-.39-2.94,1.82-5.23,5.23-5.27,5.58-.06,11.17,0,16.75,0,17.23,0,34.46,0,51.7.05,1.48,0,3.49.23,4.3,1.18a6.77,6.77,0,0,1,1.47,4.89c-.36,2.39-2.48,3.3-4.89,3.29h-35Z" transform="translate(-0.71 -0.61)"/><path class="cls-1" d="M51.74,97.14C55.59,92,59,87.39,62.51,82.84c2-2.55,4.69-3,6.9-1.23a4.49,4.49,0,0,1,.78,6.53Q63.37,97.5,56.3,106.7c-2,2.67-4.91,2.83-7.37.49-3-2.89-6-5.88-8.92-8.92-2.14-2.24-2.15-4.85-.25-6.8s4.57-2,6.8.12C48.26,93.2,49.77,95,51.74,97.14Z" transform="translate(-0.71 -0.61)"/><path class="cls-1" d="M51.75,134.75c3.74-5,7-9.36,10.32-13.73,2.26-3,4.86-3.64,7.24-1.88s2.52,4.47.28,7.48q-6.39,8.58-12.85,17.13c-2.57,3.39-5.29,3.55-8.36.55-2.72-2.67-5.42-5.36-8.08-8.1-2.42-2.5-2.54-5.21-.42-7.23s4.62-1.78,7,.55C48.49,131.08,49.94,132.79,51.75,134.75Z" transform="translate(-0.71 -0.61)"/><path class="cls-1" d="M52.21,171.75c3.31-4.4,6.59-8.78,9.89-13.14,2.26-3,4.88-3.61,7.25-1.82s2.47,4.45.21,7.48q-6.3,8.47-12.66,16.91c-2.71,3.59-5.4,3.8-8.55.7-2.72-2.67-5.43-5.36-8.09-8.1-2.32-2.4-2.48-5-.55-7s4.7-2,7.23.41c1.56,1.47,3.09,3,4.64,4.47C51.64,171.7,51.76,171.68,52.21,171.75Z" transform="translate(-0.71 -0.61)"/></svg>